<svg version="1" xmlns="http://www.w3.org/2000/svg" width="682.667" height="682.667" viewBox="0 0 512.000000 512.000000"><path d="M225.3 19.2c-5.1.6-9.3 1.4-9.3 1.9s-1 .9-2.2.9c-3.6 0-24.2 4.2-24.8 5-.3.5-3.4 1.6-6.9 2.5-3.5.9-7.3 2.2-8.5 2.9-1.1.8-4.2 2-6.8 2.7-2.7.7-4.8 1.6-4.8 2 0 .4-2.7 1.7-6 2.9s-6 2.5-6 2.9c0 .4-2.2 1.5-5 2.6-2.7 1.1-5 2.3-5 2.7 0 .3-.9.9-2 1.3-1.1.3-4.1 2.1-6.7 3.9-2.7 1.8-5.6 3.5-6.5 3.9-1 .3-1.8 1.1-1.8 1.7 0 .5-.5 1-1.2 1-.6 0-3.6 1.9-6.7 4.2-5.7 4.4-6.2 4.8-13.2 10.8-5.3 4.6-19.5 18.7-23.9 24-1.9 2.2-4.2 4.9-5 5.8-3.6 3.9-10 13-10 14 0 .7-.4 1.2-1 1.2-.5 0-1.7 1.6-2.6 3.5-.9 1.9-2 3.5-2.4 3.5-.4 0-1.5 1.8-2.4 4-.9 2.2-2 4-2.5 4-.4 0-1.6 2.1-2.6 4.7-1 2.7-2.6 5.5-3.5 6.4-.9.9-2.3 3.8-3 6.3-.7 2.5-1.6 4.6-2.1 4.6-.4 0-1.5 2.3-2.4 5.2-.8 2.8-1.9 5.4-2.3 5.7-.5.3-1.9 4.4-3.2 9.1-1.2 4.7-2.6 8.7-3 9-.5.3 59.8.5 133.8.5 109.4 0 135.4.2 138.5 1.3 2 .8 3.7 1.7 3.7 2 0 .4-11.7 12.4-26 26.7l-26 26 7.7 7.7 7.8 7.8 26.1-26.1 26.2-26.1 1.3 3.8c1.2 3.2 1.4 21 1.4 98.4v94.5l-2.4 5.9c-3.1 7.6-9.1 13.6-16.7 16.7l-5.9 2.4-102.3.3-102.2.3 1.6 2.4c.9 1.4 2.2 2.5 2.9 2.5.8 0 2.2 1 3.2 2.2 1 1.3 4.5 4.3 7.8 6.8s6.9 5.3 7.9 6.2c1.1 1 2.8 2 3.8 2.4 1 .3 1.8.9 1.8 1.4 0 .5 2.1 1.9 4.8 3.2 2.6 1.3 4.9 2.6 5 3.1.2.4 1.9 1.4 3.8 2.2 1.9.8 3.4 1.9 3.4 2.4 0 .6.5 1.1 1.1 1.1 1 0 7.8 3.1 22.4 10.1 2.2 1 5.9 2.3 8.3 2.9 2.3.6 4.2 1.4 4.2 1.9 0 .4 3.5 1.6 7.8 2.7 4.2 1 7.9 2.1 8.2 2.5.6.7 22.5 4.9 25.7 4.9 1.2 0 2.3.4 2.5.9.7 2 35.3 3.3 54.1 2.1 9.9-.6 18.7-1.5 19.6-2 .9-.4 7.2-1.7 14-2.9 6.9-1.2 13-2.5 13.5-3 .6-.5 4.4-1.6 8.4-2.6 4-.9 7.5-2.1 7.7-2.6.3-.4 3.3-1.6 6.5-2.5 3.3-.9 6-2 6-2.4 0-.5 2.5-1.6 5.6-2.6 3.1-.9 6.1-2.3 6.7-2.9.7-.6 3.4-2 6-3s5.1-2.3 5.5-3c.4-.6 2.2-1.7 4-2.4 1.7-.8 3.2-1.7 3.2-2.2 0-.4 1-1.1 2.3-1.4 1.2-.4 4.5-2.5 7.4-4.6 2.9-2.2 5.6-3.9 6-3.9.5 0 1.4-.9 2.1-2 .7-1.1 1.9-2 2.7-2 .8 0 2-.9 2.7-2 .7-1.1 1.7-2 2.2-2 2.1 0 35.6-33.5 35.6-35.6 0-.7.9-1.8 2-2.4 1.1-.6 2-1.5 2-2s2.5-4.2 5.6-8.2c3.1-4 6.1-8.5 6.6-10.1.6-1.5 1.4-2.7 1.8-2.7.4 0 1.6-2 2.7-4.5 1-2.5 2.1-4.5 2.4-4.5.8 0 7.3-13.3 8.8-18.3.7-2 1.6-3.7 2-3.7.3 0 1.3-2.1 2-4.8.8-2.6 2.2-6.3 3.1-8.3.9-2 2.5-7.2 3.5-11.5 1-4.4 2.2-8.1 2.6-8.4.7-.6 3.9-18.4 3.9-22.3 0-1.4.6-2.7 1.3-2.9 1.7-.6 1.8-66.3 0-69.9-.6-1.3-1.9-7.4-2.8-13.4-1-6.1-2-11.2-2.4-11.5-.3-.3-1.5-3.9-2.5-8s-2.2-8-2.6-8.5c-.4-.6-1.8-4.4-3.1-8.5-1.2-4.1-2.6-7.7-2.9-8-.4-.3-1.5-2.8-2.5-5.5-1.7-4.5-3.4-7.8-7.2-14-.7-1.1-2.2-4-3.5-6.5-1.2-2.5-2.6-5-3-5.5-.5-.6-2.7-3.9-5.1-7.5-2.3-3.6-4.8-7.1-5.5-7.8-.6-.8-1.7-2.3-2.4-3.5-.6-1.2-1.9-3.1-2.9-4.2s-4.6-5.4-8-9.5c-5.2-6.4-12.1-13.4-21.7-22-1.2-1.1-3.5-2.8-5-3.7-1.5-1-3.3-2.6-4-3.5-.7-1-1.9-1.8-2.7-1.8-.8 0-2-.8-2.7-1.8-.7-1-2.8-2.7-4.5-3.7-1.8-1.1-3.3-2.2-3.3-2.6 0-.3-1.8-1.4-4-2.5-2.2-1-4-2.2-4-2.6 0-.4-1.7-1.6-3.7-2.7-2.1-1-9.6-4.9-16.8-8.5-7.1-3.7-15.4-7.3-18.2-8.2-2.9-.8-5.3-1.9-5.3-2.3 0-.4-3.3-1.6-7.2-2.6-4-1-7.5-2.1-7.8-2.5-.3-.4-5.9-1.7-12.5-3-6.6-1.2-12.9-2.6-14-3.1-6.3-2.7-53.5-3.8-74.2-1.7z"/><path d="M36 268.5v6.5h114v-13H36v6.5zM36 308.5v6.5h114v-13H36v6.5zM174 348.5v6.5h114v-13H174v6.5zM36 388.5v6.5h114v-13H36v6.5z"/></svg>